 http://www.shotpix.com/images/67728132606948308990.jpg

General
Complete name                            : A$AP Rocky ft. Drake, 2 Chainz & Kendrick Lamar - Fucking Problems (Explicit) 720p [Sbyky].mp4
Format                                   : MPEG-4
Format profile                           : Base Media / Version 2
Codec ID                                 : mp42
File size                                : 49.1 MiB
Duration                                 : 3mn 52s
Overall bit rate mode                    : Variable
Overall bit rate                         : 1 772 Kbps
Encoded date                             : UTC 2012-12-03 08:55:06
Tagged date                              : UTC 2012-12-03 08:55:06
gsst                                     : 0
gstd                                     : 232663
gssd                                     : B4A7DAA02HH1358198586276076
gshh                                     :

Video
ID                                       : 1
Format                                   : AVC
Format/Info                              : Advanced Video Codec
Format profile                           : High@L3.1
Format settings, CABAC                   : Yes
Format settings, ReFrames                : 1 frame
Codec ID                                 : avc1
Codec ID/Info                            : Advanced Video Coding
Duration                                 : 3mn 52s
Bit rate                                 : 1 577 Kbps
Maximum bit rate                         : 2 862 Kbps
Width                                    : 1 280 pixels
Height                                   : 720 pixels
Display aspect ratio                     : 16:9
Frame rate mode                          : Constant
Frame rate                               : 23.976 fps
Color space                              : YUV
Chroma subsampling                       : 4:2:0
Bit depth                                : 8 bits
Scan type                                : Progressive
Bits/(Pixel*Frame)                       : 0.071
Stream size                              : 43.7 MiB (89%)
Tagged date                              : UTC 2012-12-03 08:55:06

Audio
ID                                       : 2
Format                                   : AAC
Format/Info                              : Advanced Audio Codec
Format profile                           : LC
Codec ID                                 : 40
Duration                                 : 3mn 52s
Bit rate mode                            : Variable
Bit rate                                 : 192 Kbps
Maximum bit rate                         : 203 Kbps
Channel(s)                               : 2 channels
Channel positions                        : Front: L R
Sampling rate                            : 44.1 KHz
Compression mode                         : Lossy
Stream size                              : 5.32 MiB (11%)
Title                                    : IsoMedia File Produced by Google, 5-11-2011
Encoded date                             : UTC 2012-12-03 08:55:06
Tagged date                              : UTC 2012-12-03 08:55:06

Shared By Sbyky 
http://www.shotpix.com/images/65449402944248708647.gif